PathFileType	4	(X/Y/Z)	/Users/itak/Documents/Research/Walk-IL/dataset/trc/00189_00008.trc
DataRate	CameraRate	NumFrames	NumMarkers	Units	OrigDataRate	OrigDataStartFrame	OrigNumFrames
100.000000	100.000000	4	53	mm	100.000000	513	821
Frame#	Time	RPSI			LPSI			L3			STRN			T10			C7			CLAV			RBAK			LBAK			LSHO			LUPA			LAEL			LAOL			LWTS			LWPS			LFRA			LIFD			LHPS			LHTS			RSHO			RUPA			RAEL			RAOL			RWTS			RWPS			RFRA			RIFD			RHTS			RHPS			RBHD			LFHD			RFHD			LBHD			LHIP			RHIP			RASI			LASI			LKNE			LTHI			LANK			LTIP			LTOE			LMT1			LMT5			LHEE			RKNE			RTHI			RANK			RTIP			RTOE			RMT1			RMT5			RHEE			
		X1	Y1	Z1	X2	Y2	Z2	X3	Y3	Z3	X4	Y4	Z4	X5	Y5	Z5	X6	Y6	Z6	X7	Y7	Z7	X8	Y8	Z8	X9	Y9	Z9	X10	Y10	Z10	X11	Y11	Z11	X12	Y12	Z12	X13	Y13	Z13	X14	Y14	Z14	X15	Y15	Z15	X16	Y16	Z16	X17	Y17	Z17	X18	Y18	Z18	X19	Y19	Z19	X20	Y20	Z20	X21	Y21	Z21	X22	Y22	Z22	X23	Y23	Z23	X24	Y24	Z24	X25	Y25	Z25	X26	Y26	Z26	X27	Y27	Z27	X28	Y28	Z28	X29	Y29	Z29	X30	Y30	Z30	X31	Y31	Z31	X32	Y32	Z32	X33	Y33	Z33	X34	Y34	Z34	X35	Y35	Z35	X36	Y36	Z36	X37	Y37	Z37	X38	Y38	Z38	X39	Y39	Z39	X40	Y40	Z40	X41	Y41	Z41	X42	Y42	Z42	X43	Y43	Z43	X44	Y44	Z44	X45	Y45	Z45	X46	Y46	Z46	X47	Y47	Z47	X48	Y48	Z48	X49	Y49	Z49	X50	Y50	Z50	X51	Y51	Z51	X52	Y52	Z52	X53	Y53	Z53	

514	5.13	416.2900085449219	1046.275512695312	-741.5154418945312	496.3153686523438	1058.064208984375	-837.3801879882812	450.2026062011719	1086.929809570312	-784.544189453125	651.026611328125	1298.246704101562	-622.3937377929688	419.906494140625	1242.682250976562	-807.9537353515625	478.0022888183594	1511.887573242188	-779.5946044921875	634.9112548828125	1411.063354492188	-649.785888671875	359.2486572265625	1338.070678710938	-733.2280883789062	533.2008056640625	1485.776123046875	-861.5794677734375	640.98046875	1474.898315429688	-876.4500732421875	655.9861450195312	1343.901733398438	-956.8993530273438	682.3927612304688	1133.295654296875	-977.0001220703125	610.7092895507812	1107.080078125	-929.1356811523438	794.8546752929688	907.876953125	-932.3604736328125	729.1171264648438	884.924072265625	-995.548095703125	707.0496215820312	1025.984741210938	-993.1347045898438	815.917724609375	719.366943359375	-923.427490234375	753.53271484375	816.7098388671875	-991.5491333007812	817.0972290039062	832.4783935546875	-956.264892578125	419.3810119628906	1496.196166992188	-598.1002197265625	358.3515930175781	1433.284301757812	-557.2998657226562	291.212158203125	1152.678833007812	-518.432373046875	355.4229431152344	1135.643920898438	-591.7737426757812	391.80810546875	928.7314453125	-420.3817138671875	307.3677368164062	911.517822265625	-441.7357482910156	294.0719909667969	1082.241088867188	-483.47412109375	410.2654724121094	737.435546875	-413.3023071289062	397.5027160644531	834.408935546875	-388.0086975097656	324.5804443359375	829.1778564453125	-418.7279968261719	475.2639770507812	1667.27490234375	-704.0340576171875	680.680908203125	1732.422241210938	-681.4573974609375	589.2666015625	1731.5966796875	-589.3624877929688	564.1049194335938	1674.369995117188	-806.4908447265625	650.32666015625	1008.701843261719	-866.0028686523438	452.3746948242188	984.6122436523438	-550.963623046875	548.4928588867188	1024.1708984375	-538.3818359375	708.6115112304688	1038.009033203125	-740.6656494140625	728.959228515625	509.2556457519531	-767.9075317382812	722.9537353515625	652.9080200195312	-809.0694580078125	667.2882080078125	34.34890365600586	-804.9867553710938	711.76708984375	277.2200317382812	-791.6652221679688	823.480224609375	43.97360610961914	-653.3238525390625	756.4801635742188	44.65912246704102	-644.7808837890625	775.6617431640625	28.09902572631836	-771.4083862304688	585.591796875	41.14545822143555	-782.5101318359375	515.3720092773438	478.8711853027344	-555.1741943359375	508.7750244140625	753.8738403320312	-522.8392944335938	177.589599609375	206.2037963867188	-808.1519165039062	469.9974670410156	371.481689453125	-606.1420288085938	318.019775390625	47.40726852416992	-775.1611328125	314.78662109375	94.46919250488281	-826.2037963867188	210.2049713134766	105.4367370605469	-760.7916259765625	195.1886444091797	257.6704711914062	-871.470947265625	
515	5.14	424.0277404785156	1047.468627929688	-739.1198120117188	504.4779052734375	1059.212036132812	-834.4255981445312	458.4663696289062	1088.350952148438	-782.00244140625	657.5198974609375	1299.407592773438	-617.4931030273438	428.3878784179688	1244.273681640625	-806.0993041992188	487.0303344726562	1513.303588867188	-776.7067260742188	641.8373413085938	1412.301879882812	-644.86572265625	367.0980529785156	1339.66259765625	-732.1497192382812	543.3582763671875	1487.309692382812	-857.96728515625	651.26708984375	1476.4091796875	-871.183349609375	667.9170532226562	1345.493896484375	-951.3576049804688	695.2855834960938	1134.638061523438	-970.1448974609375	622.4664916992188	1108.436889648438	-923.8920288085938	807.4515991210938	909.827880859375	-921.6233520507812	743.53759765625	886.3070678710938	-986.417724609375	720.7005004882812	1027.29736328125	-985.1735229492188	828.9474487304688	721.5302734375	-911.142333984375	768.169921875	818.217041015625	-981.4169311523438	830.5293579101562	834.2538452148438	-944.5240478515625	425.8039245605469	1497.613647460938	-596.265869140625	363.7785949707031	1434.97021484375	-556.537109375	295.4393005371094	1154.371948242188	-518.1175537109375	361.0128479003906	1137.314575195312	-590.412841796875	397.1710205078125	932.0889892578125	-417.3963317871094	313.2764587402344	913.4197387695312	-439.9661865234375	298.3427124023438	1083.860961914062	-482.7875366210938	418.7167358398438	741.2924194335938	-408.5281372070312	403.8280029296875	838.1985473632812	-384.2494201660156	331.4889831542969	831.4194946289062	-416.1058349609375	483.8466796875	1668.932739257812	-700.6198120117188	689.2139892578125	1733.170654296875	-675.92431640625	596.8650512695312	1732.677612304688	-584.8126831054688	573.6701049804688	1675.715087890625	-802.1548461914062	658.851806640625	1009.187927246094	-861.6829223632812	458.4521179199219	986.5510864257812	-547.9007568359375	554.5557250976562	1025.795043945312	-535.2631225585938	716.2800903320312	1038.911376953125	-736.2340087890625	731.4373779296875	508.9761352539062	-766.7786865234375	727.6937255859375	652.9160766601562	-806.3428344726562	667.2670288085938	34.41687774658203	-804.9155883789062	712.7535400390625	277.2827758789062	-791.4547729492188	823.5969848632812	43.67368316650391	-653.3115844726562	756.6423950195312	44.68954086303711	-644.7950439453125	775.7431030273438	27.97031593322754	-771.5028686523438	585.8778686523438	41.73575210571289	-782.4469604492188	530.7021484375	481.5184326171875	-545.008544921875	517.76708984375	756.6373291015625	-516.8034057617188	198.2160034179688	205.5367431640625	-800.1762084960938	487.0206909179688	373.7498779296875	-595.7698974609375	340.2278442382812	49.18740081787109	-759.8143920898438	337.2442016601562	94.63181304931641	-812.4985961914062	231.6252288818359	106.7104949951172	-749.0836181640625	215.9875183105469	255.3743591308594	-864.7593383789062	
516	5.15	431.6358032226562	1048.561157226562	-736.6594848632812	512.384765625	1060.28466796875	-831.4258422851562	466.5135803222656	1089.706298828125	-779.4029541015625	663.9400634765625	1300.469116210938	-612.6384887695312	436.9637756347656	1245.714721679688	-804.149169921875	495.8649291992188	1514.58740234375	-773.77685546875	648.6401977539062	1413.430419921875	-639.9846801757812	375.0029296875	1341.068725585938	-730.979248046875	553.2521362304688	1488.700073242188	-854.313232421875	661.2772216796875	1477.776123046875	-865.932373046875	679.528564453125	1346.949462890625	-945.8056640625	707.988037109375	1135.871704101562	-963.2670288085938	634.2700805664062	1109.656372070312	-918.5707397460938	820.0131225585938	911.8292236328125	-910.7874145507812	757.9647827148438	887.6388549804688	-977.1088256835938	734.2310180664062	1028.521606445312	-977.1295166015625	842.1333618164062	723.8487548828125	-898.6456298828125	782.8436279296875	819.6852416992188	-971.0668334960938	844.0079345703125	836.1559448242188	-932.6329345703125	432.1209716796875	1498.874633789062	-594.3931274414062	369.079833984375	1436.509155273438	-555.7561645507812	299.66943359375	1155.864379882812	-517.90283203125	366.6039123535156	1138.824584960938	-589.1466674804688	402.5997314453125	935.2921142578125	-414.5575561523438	319.2883605957031	915.12744140625	-438.3238830566406	302.6358337402344	1085.2734375	-482.2244567871094	427.3213195800781	745.0664672851562	-403.9742736816406	410.2781372070312	841.8638305664062	-380.6741943359375	338.5475769042969	833.4824829101562	-413.6493835449219	492.2739868164062	1670.479370117188	-697.144287109375	697.5348510742188	1733.79638671875	-670.2762451171875	604.2811889648438	1733.59033203125	-580.144287109375	583.0481567382812	1677.01171875	-797.739990234375	667.1045532226562	1009.482238769531	-857.5435791015625	464.4158325195312	988.4149169921875	-544.8143920898438	560.5387573242188	1027.278564453125	-532.1586303710938	723.8309936523438	1039.644287109375	-731.8511352539062	733.7138671875	508.6997375488281	-765.7979736328125	732.0262451171875	652.7467651367188	-803.869873046875	667.1513061523438	34.36368560791016	-804.8385009765625	713.6607055664062	277.3713684082031	-791.2904663085938	823.7044677734375	43.41838455200195	-653.2944946289062	756.8089599609375	44.7337532043457	-644.803955078125	775.8134155273438	27.86617279052734	-771.5817260742188	586.0571899414062	42.16646194458008	-782.3600463867188	545.4865112304688	484.3856201171875	-534.733154296875	526.349853515625	759.4322509765625	-510.6709899902344	219.4790344238281	203.6481628417969	-791.9463500976562	503.81591796875	376.032470703125	-585.2047119140625	363.5475158691406	50.65517044067383	-744.3515625	360.6288452148438	94.39287567138672	-798.6101684570312	253.9615936279297	107.0036087036133	-737.1838989257812	237.2602844238281	251.9147338867188	-857.7218627929688	
517	5.16	439.09423828125	1049.550903320312	-734.1087646484375	519.9615478515625	1061.283325195312	-828.3760986328125	474.3069458007812	1090.975952148438	-776.7335815429688	670.2941284179688	1301.410766601562	-607.8265380859375	445.6216430664062	1247.000366210938	-802.0942993164062	504.5205383300781	1515.739013671875	-770.79931640625	655.3381958007812	1414.427978515625	-635.1405639648438	382.9297180175781	1342.29052734375	-729.7119140625	562.8980102539062	1489.935424804688	-850.6155395507812	671.0322875976562	1478.99267578125	-860.7071533203125	690.8323974609375	1348.255981445312	-940.2459106445312	720.4901123046875	1136.982543945312	-956.3706665039062	646.0552978515625	1110.726318359375	-913.1751708984375	832.525634765625	913.8671875	-899.8787841796875	772.371826171875	888.9107055664062	-967.6270751953125	747.624755859375	1029.644775390625	-969.012451171875	855.5060424804688	726.3524169921875	-885.9686889648438	797.5280151367188	821.1127319335938	-960.5156860351562	857.5087280273438	838.1680297851562	-920.6207885742188	438.34375	1499.966674804688	-592.4664306640625	374.311279296875	1437.877075195312	-554.923095703125	303.938720703125	1157.141967773438	-517.7600708007812	372.1667175292969	1140.1533203125	-587.9705810546875	408.0895080566406	938.2974853515625	-411.862548828125	325.3943481445312	916.6314697265625	-436.7844543457031	306.9804992675781	1086.469848632812	-481.7594604492188	436.0066223144531	748.7096557617188	-399.654541015625	416.8207702636719	845.3524780273438	-377.2833557128906	345.7149047851562	835.3573608398438	-411.341552734375	500.5436096191406	1671.8984375	-693.6182861328125	705.6420288085938	1734.302490234375	-664.5195922851562	611.5038452148438	1734.32958984375	-575.36669921875	592.2476196289062	1678.2451171875	-793.2503051757812	674.9655151367188	1009.613586425781	-853.677978515625	470.2896118164062	990.1651611328125	-541.7025756835938	566.45703125	1028.59912109375	-529.0435180664062	731.2714233398438	1040.212036132812	-727.5155639648438	735.8583984375	508.4424133300781	-764.9522094726562	735.8970336914062	652.4446411132812	-801.7315673828125	666.96044921875	34.18539047241211	-804.7770385742188	714.5377197265625	277.4685974121094	-791.1347045898438	823.80859375	43.22416687011719	-653.2798461914062	756.978515625	44.80366134643555	-644.8123779296875	775.8790893554688	27.7797679901123	-771.6558227539062	586.11767578125	42.4155158996582	-782.258544921875	559.7223510742188	487.4176025390625	-524.3502807617188	534.5555419921875	762.2362670898438	-504.4600524902344	241.3654937744141	200.6044311523438	-783.4600219726562	520.3545532226562	378.3008117675781	-574.4536743164062	387.8094787597656	51.79294204711914	-728.7142333984375	384.8448486328125	93.73098754882812	-784.4873657226562	277.1029968261719	106.3925476074219	-725.0611572265625	259.0450744628906	247.3382568359375	-850.3633422851562	
